ffmpeg started on 2025-06-28 at 18:00:37
Report written to "D:\Convert\FFMetrics\reports\ssim_report-6.txt"
Log level: 32
Command line:
ffmpeg -hide_banner -nostdin -i "G:\\\xc0\xed\xe8\xec\xe5\\\xce\xed\xe3\xee\xe8\xed\xe3\xe8\\!_37_\xc7\xe8\xec\xe0_2025\\JamClub\\100 \xe4\xe5\xe2\xf3\xf8\xe5\xea, \xea\xee\xf2\xee\xf0\xfb\xe5 \xee\xf7\xe5\xed\xfc-\xee\xf7\xe5\xed\xfc-\xee\xf7\xe5\xed\xfc-\xee\xf7\xe5\xed\xfc-\xee\xf7\xe5\xed\xfc \xf1\xe8\xeb\xfc\xed\xee \xf2\xe5\xe1\xff \xeb\xfe\xe1\xff\xf2\\\xd2\xc2-2\\JamClub_The_100_Girlfriends_Who_Really_Really_Really_Really_REALLY_2_05_HEVC.mkv" -i "G:\\\xc0\xed\xe8\xec\xe5\\\xce\xed\xe3\xee\xe8\xed\xe3\xe8\\!_37_\xc7\xe8\xec\xe0_2025\\JamClub\\100 \xe4\xe5\xe2\xf3\xf8\xe5\xea, \xea\xee\xf2\xee\xf0\xfb\xe5 \xee\xf7\xe5\xed\xfc-\xee\xf7\xe5\xed\xfc-\xee\xf7\xe5\xed\xfc-\xee\xf7\xe5\xed\xfc-\xee\xf7\xe5\xed\xfc \xf1\xe8\xeb\xfc\xed\xee \xf2\xe5\xe1\xff \xeb\xfe\xe1\xff\xf2\\\xd2\xc2-2\\JamClub_The_100_Girlfriends_Who_Really_Really_Really_Really_REALLY_2_05.mp4" -lavfi "[0:v]settb=AVTB,setpts=PTS-STARTPTS,format=pix_fmts=yuv420p10,fps=24000/1001,scale=1920:1080:flags=bicubic[main];[1:v]settb=AVTB,setpts=PTS-STARTPTS,format=pix_fmts=yuv420p,fps=24000/1001,scale=1920:1080:flags=bicubic[ref];[main][ref]ssim=eof_action=endall:stats_file='D\\:/Convert/FFMetrics/logs/ssim_logfile-6.txt'" -f null -
Input #0, matroska,webm, from 'G:\Аниме\Онгоинги\!_37_Зима_2025\JamClub\100 девушек, которые очень-очень-очень-очень-очень сильно тебя любят\ТВ-2\JamClub_The_100_Girlfriends_Who_Really_Really_Really_Really_REALLY_2_05_HEVC.mkv':
  Metadata:
    COMPATIBLE_BRANDS: isomiso2avc1mp41
    MAJOR_BRAND     : isom
    MINOR_VERSION   : 512
    ENCODER         : Lavf61.7.100
  Duration: 00:24:12.31, start: -0.001000, bitrate: 1564 kb/s
  Stream #0:0: Video: hevc (Main 10), yuv420p10le(tv, bt709, progressive), 1920x1080 [SAR 1:1 DAR 16:9], 23.98 fps, 23.98 tbr, 1k tbn (default)
      Metadata:
        HANDLER_NAME    : VideoHandler
        VENDOR_ID       : [0][0][0][0]
        ENCODER         : Lavc61.19.100 libx265
        BPS             : 1367933
        DURATION        : 00:24:12.242708333
        NUMBER_OF_FRAMES: 34819
        NUMBER_OF_BYTES : 248321352
        _STATISTICS_WRITING_APP: mkvpropedit v66.0.0 ('Josie') 64-bit
        _STATISTICS_WRITING_DATE_UTC: 2025-06-28 13:07:46
        _STATISTICS_TAGS: BPS DURATION NUMBER_OF_FRAMES NUMBER_OF_BYTES
  Stream #0:1(eng): Audio: aac (LC), 48000 Hz, stereo, fltp (default)
      Metadata:
        HANDLER_NAME    : SoundHandler
        VENDOR_ID       : [0][0][0][0]
        ENCODER         : Lavc61.19.100 aac
        BPS             : 192751
        DURATION        : 00:24:12.269000000
        NUMBER_OF_FRAMES: 68076
        NUMBER_OF_BYTES : 34990826
        _STATISTICS_WRITING_APP: mkvpropedit v66.0.0 ('Josie') 64-bit
        _STATISTICS_WRITING_DATE_UTC: 2025-06-28 13:07:46
        _STATISTICS_TAGS: BPS DURATION NUMBER_OF_FRAMES NUMBER_OF_BYTES
Input #1, mov,mp4,m4a,3gp,3g2,mj2, from 'G:\Аниме\Онгоинги\!_37_Зима_2025\JamClub\100 девушек, которые очень-очень-очень-очень-очень сильно тебя любят\ТВ-2\JamClub_The_100_Girlfriends_Who_Really_Really_Really_Really_REALLY_2_05.mp4':
  Metadata:
    major_brand     : isom
    minor_version   : 512
    compatible_brands: isomiso2avc1mp41
    encoder         : Lavf60.16.100
  Duration: 00:24:12.29, start: 0.000000, bitrate: 4145 kb/s
  Stream #1:0[0x1](und): Video: h264 (High) (avc1 / 0x31637661), yuv420p(progressive), 1920x1080 [SAR 1:1 DAR 16:9], 3947 kb/s, 23.98 fps, 23.98 tbr, 90k tbn (default)
      Metadata:
        handler_name    : VideoHandler
        vendor_id       : [0][0][0][0]
  Stream #1:1[0x2](eng): Audio: aac (LC) (mp4a / 0x6134706D), 48000 Hz, stereo, fltp, 191 kb/s (default)
      Metadata:
        handler_name    : SoundHandler
        vendor_id       : [0][0][0][0]
Stream mapping:
  Stream #0:0 (hevc) -> settb:default
  Stream #1:0 (h264) -> settb:default
  ssim:default -> Stream #0:0 (wrapped_avframe)
  Stream #0:1 -> #0:1 (aac (native) -> pcm_s16le (native))
Output #0, null, to 'pipe:':
  Metadata:
    COMPATIBLE_BRANDS: isomiso2avc1mp41
    MAJOR_BRAND     : isom
    MINOR_VERSION   : 512
    encoder         : Lavf61.7.100
  Stream #0:0: Video: wrapped_avframe, yuv420p10le(tv, bt709, progressive), 1920x1080 [SAR 1:1 DAR 16:9], q=2-31, 200 kb/s, 23.98 fps, 23.98 tbn
      Metadata:
        encoder         : Lavc61.19.100 wrapped_avframe
  Stream #0:1(eng): Audio: pcm_s16le, 48000 Hz, stereo, s16, 1536 kb/s (default)
      Metadata:
        HANDLER_NAME    : SoundHandler
        VENDOR_ID       : [0][0][0][0]
        _STATISTICS_TAGS: BPS DURATION NUMBER_OF_FRAMES NUMBER_OF_BYTES
        BPS             : 192751
        DURATION        : 00:24:12.269000000
        NUMBER_OF_FRAMES: 68076
        NUMBER_OF_BYTES : 34990826
        _STATISTICS_WRITING_APP: mkvpropedit v66.0.0 ('Josie') 64-bit
        _STATISTICS_WRITING_DATE_UTC: 2025-06-28 13:07:46
        encoder         : Lavc61.19.100 pcm_s16le
frame=  112 fps=0.0 q=-0.0 size=N/A time=00:00:04.67 bitrate=N/A speed=9.13x    frame=  270 fps=264 q=-0.0 size=N/A time=00:00:11.26 bitrate=N/A speed=  11x    frame=  476 fps=307 q=-0.0 size=N/A time=00:00:19.85 bitrate=N/A speed=12.8x    frame=  650 fps=315 q=-0.0 size=N/A time=00:00:27.11 bitrate=N/A speed=13.2x    frame=  900 fps=350 q=-0.0 size=N/A time=00:00:37.53 bitrate=N/A speed=14.6x    frame= 1119 fps=363 q=-0.0 size=N/A time=00:00:46.67 bitrate=N/A speed=15.1x    frame= 1333 fps=369 q=-0.0 size=N/A time=00:00:55.59 bitrate=N/A speed=15.4x    frame= 1572 fps=381 q=-0.0 size=N/A time=00:01:05.56 bitrate=N/A speed=15.9x    frame= 1781 fps=385 q=-0.0 size=N/A time=00:01:14.28 bitrate=N/A speed=  16x    frame= 2025 fps=393 q=-0.0 size=N/A time=00:01:24.45 bitrate=N/A speed=16.4x    frame= 2241 fps=395 q=-0.0 size=N/A time=00:01:33.46 bitrate=N/A speed=16.5x    frame= 2493 fps=404 q=-0.0 size=N/A time=00:01:43.97 bitrate=N/A speed=16.8x    frame= 2716 fps=405 q=-0.0 size=N/A time=00:01:53.27 bitrate=N/A speed=16.9x    frame= 2939 fps=407 q=-0.0 size=N/A time=00:02:02.58 bitrate=N/A speed=  17x    frame= 3153 fps=408 q=-0.0 size=N/A time=00:02:11.50 bitrate=N/A speed=  17x    frame= 3363 fps=408 q=-0.0 size=N/A time=00:02:20.26 bitrate=N/A speed=  17x    frame= 3603 fps=411 q=-0.0 size=N/A time=00:02:30.27 bitrate=N/A speed=17.1x    frame= 3804 fps=410 q=-0.0 size=N/A time=00:02:38.65 bitrate=N/A speed=17.1x    frame= 4033 fps=412 q=-0.0 size=N/A time=00:02:48.20 bitrate=N/A speed=17.2x    frame= 4222 fps=409 q=-0.0 size=N/A time=00:02:56.09 bitrate=N/A speed=17.1x    frame= 4382 fps=405 q=-0.0 size=N/A time=00:03:02.76 bitrate=N/A speed=16.9x    frame= 4571 fps=403 q=-0.0 size=N/A time=00:03:10.64 bitrate=N/A speed=16.8x    frame= 4732 fps=399 q=-0.0 size=N/A time=00:03:17.36 bitrate=N/A speed=16.6x    frame= 4962 fps=400 q=-0.0 size=N/A time=00:03:26.95 bitrate=N/A speed=16.7x    frame= 5182 fps=402 q=-0.0 size=N/A time=00:03:36.13 bitrate=N/A speed=16.8x    frame= 5423 fps=404 q=-0.0 size=N/A time=00:03:46.18 bitrate=N/A speed=16.9x    frame= 5687 fps=408 q=-0.0 size=N/A time=00:03:57.19 bitrate=N/A speed=  17x    frame= 5944 fps=411 q=-0.0 size=N/A time=00:04:07.91 bitrate=N/A speed=17.2x    frame= 6218 fps=416 q=-0.0 size=N/A time=00:04:19.34 bitrate=N/A speed=17.3x    frame= 6502 fps=420 q=-0.0 size=N/A time=00:04:31.18 bitrate=N/A speed=17.5x    frame= 6727 fps=420 q=-0.0 size=N/A time=00:04:40.57 bitrate=N/A speed=17.5x    frame= 6903 fps=418 q=-0.0 size=N/A time=00:04:47.91 bitrate=N/A speed=17.4x    frame= 7103 fps=417 q=-0.0 size=N/A time=00:04:56.25 bitrate=N/A speed=17.4x    frame= 7341 fps=418 q=-0.0 size=N/A time=00:05:06.18 bitrate=N/A speed=17.4x    frame= 7597 fps=420 q=-0.0 size=N/A time=00:05:16.85 bitrate=N/A speed=17.5x    frame= 7852 fps=423 q=-0.0 size=N/A time=00:05:27.49 bitrate=N/A speed=17.6x    frame= 8075 fps=423 q=-0.0 size=N/A time=00:05:36.79 bitrate=N/A speed=17.6x    frame= 8318 fps=424 q=-0.0 size=N/A time=00:05:46.92 bitrate=N/A speed=17.7x    frame= 8584 fps=426 q=-0.0 size=N/A time=00:05:58.02 bitrate=N/A speed=17.8x    frame= 8811 fps=427 q=-0.0 size=N/A time=00:06:07.49 bitrate=N/A speed=17.8x    frame= 9067 fps=428 q=-0.0 size=N/A time=00:06:18.16 bitrate=N/A speed=17.9x    frame= 9270 fps=428 q=-0.0 size=N/A time=00:06:26.63 bitrate=N/A speed=17.8x    frame= 9523 fps=429 q=-0.0 size=N/A time=00:06:37.18 bitrate=N/A speed=17.9x    frame= 9783 fps=431 q=-0.0 size=N/A time=00:06:48.03 bitrate=N/A speed=  18x    frame=10004 fps=431 q=-0.0 size=N/A time=00:06:57.25 bitrate=N/A speed=  18x    frame=10237 fps=431 q=-0.0 size=N/A time=00:07:06.96 bitrate=N/A speed=  18x    frame=10433 fps=430 q=-0.0 size=N/A time=00:07:15.14 bitrate=N/A speed=17.9x    frame=10646 fps=430 q=-0.0 size=N/A time=00:07:24.02 bitrate=N/A speed=17.9x    frame=10917 fps=432 q=-0.0 size=N/A time=00:07:35.32 bitrate=N/A speed=  18x    frame=11179 fps=433 q=-0.0 size=N/A time=00:07:46.25 bitrate=N/A speed=18.1x    frame=11454 fps=435 q=-0.0 size=N/A time=00:07:57.72 bitrate=N/A speed=18.1x    frame=11678 fps=435 q=-0.0 size=N/A time=00:08:07.06 bitrate=N/A speed=18.1x    frame=11921 fps=436 q=-0.0 size=N/A time=00:08:17.20 bitrate=N/A speed=18.2x    frame=12139 fps=435 q=-0.0 size=N/A time=00:08:26.29 bitrate=N/A speed=18.2x    frame=12386 fps=436 q=-0.0 size=N/A time=00:08:36.59 bitrate=N/A speed=18.2x    frame=12661 fps=438 q=-0.0 size=N/A time=00:08:48.06 bitrate=N/A speed=18.3x    frame=12931 fps=439 q=-0.0 size=N/A time=00:08:59.33 bitrate=N/A speed=18.3x    frame=13188 fps=441 q=-0.0 size=N/A time=00:09:10.04 bitrate=N/A speed=18.4x    frame=13447 fps=442 q=-0.0 size=N/A time=00:09:20.85 bitrate=N/A speed=18.4x    frame=13699 fps=442 q=-0.0 size=N/A time=00:09:31.36 bitrate=N/A speed=18.4x    frame=13916 fps=442 q=-0.0 size=N/A time=00:09:40.41 bitrate=N/A speed=18.4x    frame=14121 fps=441 q=-0.0 size=N/A time=00:09:48.96 bitrate=N/A speed=18.4x    frame=14299 fps=440 q=-0.0 size=N/A time=00:09:56.38 bitrate=N/A speed=18.3x    frame=14546 fps=440 q=-0.0 size=N/A time=00:10:06.68 bitrate=N/A speed=18.4x    frame=14807 fps=442 q=-0.0 size=N/A time=00:10:17.57 bitrate=N/A speed=18.4x    frame=15074 fps=442 q=-0.0 size=N/A time=00:10:28.71 bitrate=N/A speed=18.5x    frame=15351 fps=444 q=-0.0 size=N/A time=00:10:40.26 bitrate=N/A speed=18.5x    frame=15634 fps=445 q=-0.0 size=N/A time=00:10:52.06 bitrate=N/A speed=18.6x    frame=15910 fps=447 q=-0.0 size=N/A time=00:11:03.57 bitrate=N/A speed=18.6x    frame=16162 fps=447 q=-0.0 size=N/A time=00:11:14.09 bitrate=N/A speed=18.7x    frame=16387 fps=447 q=-0.0 size=N/A time=00:11:23.47 bitrate=N/A speed=18.6x    frame=16565 fps=446 q=-0.0 size=N/A time=00:11:30.89 bitrate=N/A speed=18.6x    frame=16716 fps=444 q=-0.0 size=N/A time=00:11:37.19 bitrate=N/A speed=18.5x    frame=16928 fps=443 q=-0.0 size=N/A time=00:11:46.03 bitrate=N/A speed=18.5x    frame=17178 fps=444 q=-0.0 size=N/A time=00:11:56.46 bitrate=N/A speed=18.5x    frame=17436 fps=444 q=-0.0 size=N/A time=00:12:07.22 bitrate=N/A speed=18.5x    frame=17713 fps=446 q=-0.0 size=N/A time=00:12:18.77 bitrate=N/A speed=18.6x    frame=17992 fps=447 q=-0.0 size=N/A time=00:12:30.41 bitrate=N/A speed=18.6x    frame=18255 fps=448 q=-0.0 size=N/A time=00:12:41.38 bitrate=N/A speed=18.7x    frame=18491 fps=448 q=-0.0 size=N/A time=00:12:51.22 bitrate=N/A speed=18.7x    frame=18765 fps=449 q=-0.0 size=N/A time=00:13:02.65 bitrate=N/A speed=18.7x    frame=19030 fps=450 q=-0.0 size=N/A time=00:13:13.70 bitrate=N/A speed=18.8x    frame=19295 fps=450 q=-0.0 size=N/A time=00:13:24.76 bitrate=N/A speed=18.8x    frame=19566 fps=451 q=-0.0 size=N/A time=00:13:36.06 bitrate=N/A speed=18.8x    frame=19793 fps=451 q=-0.0 size=N/A time=00:13:45.53 bitrate=N/A speed=18.8x    frame=20049 fps=452 q=-0.0 size=N/A time=00:13:56.21 bitrate=N/A speed=18.8x    frame=20296 fps=452 q=-0.0 size=N/A time=00:14:06.51 bitrate=N/A speed=18.9x    frame=20559 fps=453 q=-0.0 size=N/A time=00:14:17.48 bitrate=N/A speed=18.9x    frame=20816 fps=453 q=-0.0 size=N/A time=00:14:28.20 bitrate=N/A speed=18.9x    frame=21061 fps=453 q=-0.0 size=N/A time=00:14:38.41 bitrate=N/A speed=18.9x    frame=21289 fps=453 q=-0.0 size=N/A time=00:14:47.92 bitrate=N/A speed=18.9x    frame=21554 fps=454 q=-0.0 size=N/A time=00:14:58.98 bitrate=N/A speed=18.9x    frame=21811 fps=454 q=-0.0 size=N/A time=00:15:09.70 bitrate=N/A speed=  19x    frame=22075 fps=455 q=-0.0 size=N/A time=00:15:20.71 bitrate=N/A speed=  19x    frame=22288 fps=455 q=-0.0 size=N/A time=00:15:29.59 bitrate=N/A speed=  19x    frame=22540 fps=455 q=-0.0 size=N/A time=00:15:40.10 bitrate=N/A speed=  19x    frame=22779 fps=455 q=-0.0 size=N/A time=00:15:50.07 bitrate=N/A speed=  19x    frame=23030 fps=455 q=-0.0 size=N/A time=00:16:00.54 bitrate=N/A speed=  19x    frame=23278 fps=456 q=-0.0 size=N/A time=00:16:10.88 bitrate=N/A speed=  19x    frame=23546 fps=456 q=-0.0 size=N/A time=00:16:22.06 bitrate=N/A speed=  19x    frame=23820 fps=457 q=-0.0 size=N/A time=00:16:33.49 bitrate=N/A speed=19.1x    frame=24045 fps=457 q=-0.0 size=N/A time=00:16:42.87 bitrate=N/A speed=19.1x    frame=24300 fps=457 q=-0.0 size=N/A time=00:16:53.51 bitrate=N/A speed=19.1x    frame=24547 fps=457 q=-0.0 size=N/A time=00:17:03.81 bitrate=N/A speed=19.1x    frame=24808 fps=458 q=-0.0 size=N/A time=00:17:14.70 bitrate=N/A speed=19.1x    frame=25048 fps=458 q=-0.0 size=N/A time=00:17:24.71 bitrate=N/A speed=19.1x    frame=25253 fps=457 q=-0.0 size=N/A time=00:17:33.26 bitrate=N/A speed=19.1x    frame=25457 fps=457 q=-0.0 size=N/A time=00:17:41.76 bitrate=N/A speed=19.1x    frame=25728 fps=457 q=-0.0 size=N/A time=00:17:53.07 bitrate=N/A speed=19.1x    frame=25976 fps=458 q=-0.0 size=N/A time=00:18:03.41 bitrate=N/A speed=19.1x    frame=26226 fps=458 q=-0.0 size=N/A time=00:18:13.84 bitrate=N/A speed=19.1x    frame=26495 fps=458 q=-0.0 size=N/A time=00:18:25.06 bitrate=N/A speed=19.1x    frame=26671 fps=457 q=-0.0 size=N/A time=00:18:32.40 bitrate=N/A speed=19.1x    frame=26883 fps=457 q=-0.0 size=N/A time=00:18:41.24 bitrate=N/A speed=19.1x    frame=27158 fps=458 q=-0.0 size=N/A time=00:18:52.71 bitrate=N/A speed=19.1x    frame=27356 fps=457 q=-0.0 size=N/A time=00:19:00.97 bitrate=N/A speed=19.1x    frame=27622 fps=458 q=-0.0 size=N/A time=00:19:12.06 bitrate=N/A speed=19.1x    frame=27884 fps=458 q=-0.0 size=N/A time=00:19:22.99 bitrate=N/A speed=19.1x    frame=28156 fps=459 q=-0.0 size=N/A time=00:19:34.33 bitrate=N/A speed=19.1x    frame=28420 fps=459 q=-0.0 size=N/A time=00:19:45.35 bitrate=N/A speed=19.1x    frame=28693 fps=460 q=-0.0 size=N/A time=00:19:56.73 bitrate=N/A speed=19.2x    frame=28959 fps=460 q=-0.0 size=N/A time=00:20:07.83 bitrate=N/A speed=19.2x    frame=29223 fps=461 q=-0.0 size=N/A time=00:20:18.84 bitrate=N/A speed=19.2x    frame=29511 fps=461 q=-0.0 size=N/A time=00:20:30.85 bitrate=N/A speed=19.2x    frame=29779 fps=462 q=-0.0 size=N/A time=00:20:42.03 bitrate=N/A speed=19.3x    frame=30034 fps=462 q=-0.0 size=N/A time=00:20:52.66 bitrate=N/A speed=19.3x    frame=30311 fps=463 q=-0.0 size=N/A time=00:21:04.22 bitrate=N/A speed=19.3x    frame=30575 fps=463 q=-0.0 size=N/A time=00:21:15.23 bitrate=N/A speed=19.3x    frame=30836 fps=463 q=-0.0 size=N/A time=00:21:26.11 bitrate=N/A speed=19.3x    frame=31077 fps=463 q=-0.0 size=N/A time=00:21:36.16 bitrate=N/A speed=19.3x    frame=31327 fps=463 q=-0.0 size=N/A time=00:21:46.59 bitrate=N/A speed=19.3x    frame=31568 fps=464 q=-0.0 size=N/A time=00:21:56.64 bitrate=N/A speed=19.3x    frame=31818 fps=464 q=-0.0 size=N/A time=00:22:07.07 bitrate=N/A speed=19.3x    frame=32057 fps=464 q=-0.0 size=N/A time=00:22:17.04 bitrate=N/A speed=19.3x    frame=32343 fps=464 q=-0.0 size=N/A time=00:22:28.97 bitrate=N/A speed=19.4x    frame=32546 fps=464 q=-0.0 size=N/A time=00:22:37.43 bitrate=N/A speed=19.3x    frame=32770 fps=464 q=-0.0 size=N/A time=00:22:46.78 bitrate=N/A speed=19.3x    frame=32945 fps=463 q=-0.0 size=N/A time=00:22:54.08 bitrate=N/A speed=19.3x    frame=33172 fps=462 q=-0.0 size=N/A time=00:23:03.54 bitrate=N/A speed=19.3x    frame=33410 fps=462 q=-0.0 size=N/A time=00:23:13.47 bitrate=N/A speed=19.3x    frame=33606 fps=462 q=-0.0 size=N/A time=00:23:21.65 bitrate=N/A speed=19.3x    frame=33810 fps=461 q=-0.0 size=N/A time=00:23:30.15 bitrate=N/A speed=19.2x    frame=34016 fps=461 q=-0.0 size=N/A time=00:23:38.75 bitrate=N/A speed=19.2x    frame=34123 fps=459 q=-0.0 size=N/A time=00:23:43.21 bitrate=N/A speed=19.2x    frame=34231 fps=457 q=-0.0 size=N/A time=00:23:47.71 bitrate=N/A speed=19.1x    frame=34337 fps=456 q=-0.0 size=N/A time=00:23:52.13 bitrate=N/A speed=  19x    frame=34457 fps=454 q=-0.0 size=N/A time=00:23:57.14 bitrate=N/A speed=18.9x    frame=34615 fps=453 q=-0.0 size=N/A time=00:24:03.73 bitrate=N/A speed=18.9x    [Parsed_ssim_10 @ 0000018fcf56ad00] SSIM Y:0.994503 (22.598434) U:0.993809 (22.082695) V:0.993754 (22.043909) All:0.994262 (22.412617)
[out#0/null @ 0000018fc8ae2f00] video:14961KiB audio:272304KiB subtitle:0KiB other streams:0KiB global headers:0KiB muxing overhead: unknown
frame=34819 fps=453 q=-0.0 Lsize=N/A time=00:24:12.24 bitrate=N/A speed=18.9x    
